<?xml version="1.0" encoding="utf-8"?>
<!-- Generator: Adobe Illustrator 26.1.0, SVG Export Plug-In . SVG Version: 6.00 Build 0)  -->
<svg version="1.1" id="Layer_1" xmlns="http://www.w3.org/2000/svg" xmlns:xlink="http://www.w3.org/1999/xlink" x="0px" y="0px"
	 viewBox="0 0 4000 4000" style="enable-background:new 0 0 4000 4000;" xml:space="preserve">
<style type="text/css">
	.st0{opacity:0.15;}
	.st1{fill:#000072;}
	.st2{fill:#FFFFFF;}
	.st3{fill:#777782;}
	.st4{opacity:0.3;}
	.st5{fill:#FF999E;}
	.st6{fill:#F9D3B7;}
	.st7{fill:#FF8080;}
	.st8{fill:#FF5C64;}
	.st9{fill:#FFABAB;}
	.st10{opacity:0.35;}
	.st11{fill:#FEF26B;}
</style>
<g>
	<g>
		<g class="st0">
			<ellipse class="st1" cx="2053.53" cy="3450.1" rx="957.63" ry="184.56"/>
		</g>
		<g>
			<g>
				<path class="st2" d="M1625.13,3195.74c0,0-21.17-125.06-90.88-136.35c-28.74-4.66-50.78,16.64-50.78,16.64
					s-68.86-135.05-175.29-117.46c-89.85,14.85-115.45,264.42,73.36,334.82c0,0-22.14,65.78,80.59,83.29
					c88.82,15.15,164.51-41.36,164.51-41.36L1625.13,3195.74z"/>
			</g>
			<g>
				<path class="st2" d="M1381.53,3293.4c0,0-22.11,65.78,80.6,83.28c88.82,15.11,164.53-41.37,164.53-41.37l-1.53-139.55
					c0,0-5.18-30.67-18.86-62.99c-14.02-32.96-36.83-67.7-72.02-73.39c-28.74-4.63-50.78,16.62-50.78,16.62
					s-68.85-135.04-175.29-117.44c-18.08,2.98-33.62,15.5-45.23,34.16l-0.01,0.05C1216.7,3066.75,1230.8,3237.18,1381.53,3293.4z"/>
			</g>
			<g class="st0">
				<path class="st1" d="M1381.53,3293.4c0,0-22.11,65.78,80.6,83.28c88.82,15.11,164.53-41.37,164.53-41.37l-1.53-139.55
					c0,0-5.18-30.67-18.86-62.99c-20.39,15.73-44.57,48-61.63,113.88c-20.31,78.43-70.52,61.13-56.11,18.88
					c0,0-235.48-54.68-225.61-272.77C1216.7,3066.75,1230.8,3237.18,1381.53,3293.4z"/>
			</g>
			<g>
				<path class="st1" d="M1493.17,3394.42c-10.9,0-22.12-0.86-33.58-2.82c-42.14-7.18-70.85-23.11-85.32-47.32
					c-9.18-15.36-10.4-30.68-9.64-41.37c-107.52-46.21-147.54-152.5-139.08-239.92c6.35-65.52,37.81-112.37,80.17-119.38
					c94.65-15.6,160.01,73.67,182.63,110.44c11.46-6.49,28.52-12.84,48.33-9.62c79.49,12.87,102.45,143.22,103.39,148.76
					c1.4,8.25-4.16,16.06-12.4,17.46c-8.23,1.41-16.07-4.16-17.46-12.4c-5.43-31.83-30.11-116.11-78.37-123.93
					c-20.62-3.32-37.73,12.48-37.9,12.65c-3.47,3.26-8.31,4.76-13.01,3.93c-4.7-0.82-8.77-3.76-10.94-8
					c-0.63-1.24-65.23-125.02-159.33-109.4c-27.53,4.55-50.13,42.55-54.96,92.41c-7.09,73.19,23,172.96,131.14,213.28
					c7.66,2.86,11.67,11.27,9.06,19.02c-0.15,0.48-4.72,15.7,4.61,30.93c9.71,15.83,31.9,27.1,64.17,32.61
					c81.13,13.79,152.22-38.06,152.93-38.58c6.7-4.98,16.19-3.58,21.18,3.12c4.99,6.7,3.61,16.17-3.08,21.17
					C1632.8,3349.62,1571.76,3394.41,1493.17,3394.42z"/>
			</g>
			<g>
				<path class="st1" d="M1488.54,3265.53c-24.73,33.61-69.65,46.14-110,42.69c-20.17-1.2-19.18-30.82,1.06-30.64
					c6.09,0.58,11.62,3.43,17.61,4.79c6.04,1.49,13.46,2.79,19.64,3.42C1442.07,3287.87,1468.43,3281.74,1488.54,3265.53
					L1488.54,3265.53z"/>
			</g>
			<g>
				<path class="st1" d="M1493.72,3145.35c-5.58-22.79-14.22-44.85-24.88-65.43c-3.96-7.6-1.01-16.97,6.59-20.93
					c9.76-5.39,22.49,2.09,22.68,13.15C1499.39,3096.78,1498.18,3121.34,1493.72,3145.35L1493.72,3145.35z"/>
			</g>
		</g>
		<g>
			<path class="st3" d="M2577.1,3433.47c-33.8,4.02-154.09-18.88-185-20.4c-45.83-2.25-134.34,5.22-229.97,21.35
				c0,0,107.93-371.24,107.64-414.16c178.92-42.92,352.3,74.04,352.3,74.04S2623.56,3427.94,2577.1,3433.47z"/>
		</g>
		<g>
			<path class="st2" d="M2615.81,3278.41c-5.81,78.29-17,152.48-38.72,155.04c-33.79,4.04-154.08-18.88-185-20.39
				c-45.83-2.26-134.35,5.23-229.98,21.34c0,0,107.94-371.24,107.64-414.16c31.4-7.52,62.66-10.16,92.79-9.3
				c141.67,3.83,259.5,83.35,259.5,83.35S2622.45,3189.07,2615.81,3278.41z"/>
		</g>
		<g class="st0">
			<path class="st1" d="M2615.81,3278.41c-5.81,78.29-17,152.48-38.72,155.04c-33.79,4.04-154.08-18.88-185-20.39
				c-45.83-2.26-134.35,5.23-229.98,21.34c0,0,107.94-371.24,107.64-414.16c31.4-7.52,62.66-10.16,92.79-9.3
				c6.98,40.43,17.85,111.88,25.58,203.13c7.42,87.73,95.77,44.46,107.33-12.93c11.97-59.44,41.73-76.68,41.73-76.68
				S2577.78,3202.24,2615.81,3278.41z"/>
		</g>
		<g>
			<path class="st1" d="M2162.12,3449.56c-4.28,0-8.41-1.82-11.31-5.07c-3.47-3.89-4.69-9.29-3.23-14.3
				c43.13-148.37,107.24-379.96,107.04-409.83c-0.05-7.04,4.76-13.19,11.61-14.83c183.29-43.96,356.99,71.28,364.29,76.21
				c4.16,2.8,6.66,7.48,6.67,12.49c0,0.84,0.32,84.9-5.09,168.56c-10.26,158.87-31.65,183.15-53.22,185.72l0,0
				c-23.43,2.77-78.71-5.35-127.5-12.52c-25.42-3.74-49.41-7.27-60.03-7.79c-47.67-2.35-136.64,5.96-226.71,21.15
				C2163.8,3449.49,2162.96,3449.56,2162.12,3449.56z M2374.25,3397.52c6.7,0,12.92,0.14,18.58,0.42
				c12.08,0.6,35.66,4.06,62.95,8.08c41.41,6.09,97.85,14.42,118.31,12.54c3.55-3.39,20.01-26.52,28.39-167.48
				c3.81-64.04,4.35-126.47,4.42-148.44c-32.23-19.66-175.83-100.03-323.2-69.97c-9.8,65.99-77.34,303.04-100.39,382.97
				C2256.63,3404.21,2327.33,3397.52,2374.25,3397.52z"/>
		</g>
		<g>
			<path class="st3" d="M2491.43,3357.56c17.02,42.31,45.66,82.46,118.13,75.01c105.47-10.84,198.62-183.78,174.18-317.52
				c-18.14-99.24-131.66-121.25-206.04-62.82c-35.06,27.54-68.34,91.68-86.27,176.43V3357.56z"/>
		</g>
		<g>
			<path class="st2" d="M2753.01,3305.05c-33.19,68.62-86.52,121.68-143.43,127.51c-72.5,7.44-101.13-32.7-118.13-75.01v-128.9
				c0.93-4.37,1.91-8.71,2.88-12.97l0.04-0.04c18.42-78.29,50.12-137.31,83.34-163.43c74.37-58.41,187.91-36.4,206.03,62.82
				C2794.98,3176.64,2781.3,3246.49,2753.01,3305.05z"/>
		</g>
		<g class="st4">
			<path class="st2" d="M2787.21,3175.7c-0.52-10.13-1.68-20.14-3.48-29.94c-18.13-99.22-131.66-121.24-206.03-62.82
				c-33.22,26.12-67.83,67.42-86.26,145.71c0.93-4.37,1.91-8.71,2.88-12.97l0.04-0.04c18.42-78.29,50.12-137.31,83.34-163.43
				c74.37-58.41,187.91-36.4,206.03,62.82C2787.32,3134.63,2788.37,3155.07,2787.21,3175.7z"/>
		</g>
		<g class="st0">
			<path class="st1" d="M2753.01,3305.05c-33.19,68.62-86.52,121.68-143.43,127.51c-72.5,7.44-101.13-32.7-118.13-75.01v-128.9
				c0.93-4.37,1.91-8.71,2.88-12.97l7.89-21.34c-6.23,32.5,32.02,187,129.87,191.83
				C2678.58,3388.48,2720.39,3350.53,2753.01,3305.05z"/>
		</g>
		<g>
			
				<ellipse transform="matrix(0.2844 -0.9587 0.9587 0.2844 -1248.6136 4891.77)" class="st5" cx="2652.33" cy="3282.24" rx="100.28" ry="68.24"/>
		</g>
		<g>
			
				<ellipse transform="matrix(0.2844 -0.9587 0.9587 0.2844 -1075.2318 4909.0376)" class="st5" cx="2750.59" cy="3174.74" rx="36.83" ry="25.07"/>
		</g>
		<g>
			
				<ellipse transform="matrix(0.2844 -0.9587 0.9587 0.2844 -1146.5691 4767.1797)" class="st5" cx="2619.9" cy="3151.59" rx="36.83" ry="25.07"/>
		</g>
		<g>
			
				<ellipse transform="matrix(0.2844 -0.9587 0.9587 0.2844 -1074.8809 4820.3423)" class="st5" cx="2691.36" cy="3130.16" rx="40.87" ry="27.81"/>
		</g>
		<g>
			<path class="st1" d="M2491.43,3357.56c14.4,16.82,27.32,32.65,42.51,42.85c29.62,21,70.74,21.21,103.55,7.01
				c94.37-46.62,145.3-176.85,132.27-278.2c-8.18-84.93-96.89-114.3-166.73-75.1c-57.8,32.61-87.05,113.98-111.61,174.54
				c4.46-71.62,30.35-162.93,95.69-201.82c50.01-31.03,119.66-32.96,166.88,5.29c38.64,29.94,50.04,80.23,49.35,126.41
				c-0.58,101.12-55.67,235.5-152.06,280.22C2582.05,3467.86,2496.29,3441.61,2491.43,3357.56L2491.43,3357.56z"/>
		</g>
		<g>
			<path class="st2" d="M2368.37,3092.61c0.23-251.09-131.44-341.08-143.82-587.69c-6.11-121.7-359.99-179.48-484.53-9.03
				c-52.21,71.45-284.03,411.1-240.75,728.97c24.25,178.14,109.95,264.26,270.61,290.76c34.03,5.61,70.18-4.49,135.87-9.32
				c87.17-6.41,353.42-27.21,413.39-159.48c0,0,31.22-48.06,41.9-108.45C2373.45,3168.17,2368.37,3092.61,2368.37,3092.61z"/>
		</g>
		<g class="st0">
			<path class="st1" d="M2360.8,2991.98c-60.37,8.81-164.16,61.55-333.6,36.05c-173.85-26.19-262.82-196.89-262.82-196.89
				l117.85-104.18c0,0,255.19,50.78,430.23,98.2C2332.6,2876.16,2350.98,2928.94,2360.8,2991.98z"/>
		</g>
		<g class="st0">
			<path class="st1" d="M2368.36,3092.61c0.03-21.2-0.89-41.28-2.63-60.37c7.56,105.17-78.64,194.59-234.42,186.37
				c-127.61-6.7-270.21-165.27-379.38-167.9c-53.39-1.29-101.9,117.7-137.54,239.66c-5.55-1.81-10.4-2.48-14.34-1.77
				c-25.93,4.69-45.05,0-63.07-8.82c-15.87-7.8-28.49-31.26-38.38-60.16c0.17,1.74,0.41,3.49,0.65,5.23
				c11.83,86.74,38.2,151.66,80.72,198.48c3.78,4.17,7.73,8.13,11.76,12.02c0.91,0.88,1.83,1.75,2.75,2.61
				c7.16,6.68,14.67,12.99,22.62,18.83c1.63,1.18,3.29,2.36,4.95,3.54c1.44,1.03,2.92,2.02,4.41,2.99c0.56,0.38,1.13,0.75,1.7,1.12
				c1.46,0.96,2.93,1.92,4.41,2.85c0.75,0.48,1.55,0.91,2.31,1.38c2.01,1.24,4.05,2.46,6.11,3.66c0.86,0.5,1.69,1.03,2.56,1.53
				c1.36,0.76,2.74,1.5,4.11,2.25c1.08,0.59,2.18,1.17,3.27,1.75c1.33,0.71,2.67,1.42,4.02,2.11c1.63,0.83,3.27,1.63,4.92,2.43
				c0.67,0.33,1.35,0.65,2.03,0.97c1.62,0.77,3.24,1.53,4.88,2.28c1.61,0.74,3.26,1.45,4.9,2.17c0.78,0.34,1.57,0.68,2.36,1.02
				c1.66,0.71,3.33,1.41,5.03,2.1c1.95,0.81,3.94,1.58,5.96,2.36c2.76,1.06,5.59,2.05,8.41,3.05c1.42,0.5,2.8,1.04,4.24,1.53
				c0.02,0.01,0.04,0.01,0.05,0.02c0.62,0.21,1.26,0.42,1.88,0.62c1.85,0.62,3.71,1.24,5.59,1.86c2.01,0.64,4.03,1.25,6.07,1.86
				c0.38,0.12,0.77,0.23,1.16,0.34c2.04,0.62,4.08,1.21,6.18,1.77c2.3,0.66,4.63,1.28,6.97,1.91c1.15,0.3,2.3,0.59,3.48,0.89
				c1.51,0.39,2.99,0.76,4.54,1.12c0.72,0.17,1.47,0.32,2.2,0.49c4.01,0.95,8.09,1.85,12.21,2.71c1.58,0.33,3.14,0.68,4.74,1
				c5.62,1.12,11.31,2.18,17.12,3.14c1.93,0.32,3.86,0.57,5.81,0.79c0.57,0.06,1.14,0.12,1.72,0.17c1.39,0.14,2.78,0.25,4.19,0.35
				c0.66,0.04,1.32,0.09,1.99,0.13c1.63,0.08,3.27,0.14,4.93,0.17c0.85,0.02,1.72,0.02,2.58,0.02c1.33,0,2.67,0,4.03-0.03
				c1.01-0.02,2.03-0.05,3.05-0.09c0.98-0.03,1.97-0.07,2.96-0.12c1.13-0.05,2.27-0.11,3.43-0.18c0.7-0.04,1.42-0.1,2.12-0.15
				c2.77-0.19,5.6-0.42,8.49-0.69c0.3-0.03,0.59-0.05,0.89-0.08c1.82-0.17,3.67-0.36,5.55-0.56c0.02,0,0.05-0.01,0.07-0.01
				c22.4-2.39,49.02-6.45,84.1-9.02c87.22-6.41,353.39-27.21,413.37-159.49c0,0,31.22-48.05,41.9-108.45
				C2373.46,3168.16,2368.36,3092.61,2368.36,3092.61z"/>
		</g>
		<g class="st0">
			<path class="st1" d="M2286.73,2761.4c-69.67,8.31-142.14,12.78-176.48,9.04c-215.46-23.5-201.36-188.11-268.63-215.49
				c-23.76-9.66-73.16-12.92-122.22-29.84c0,0,0-0.03,0.03-0.03c8.35-12.23,15.35-22.05,20.57-29.18
				c124.56-170.47,478.44-112.66,484.55,9.04C2229.87,2610.95,2257.25,2688.02,2286.73,2761.4z"/>
		</g>
		<g>
			<path class="st1" d="M2368.37,3092.61c-14.59-62.1-23.81-121.2-41.38-179.77c-26.72-87.95-73.07-172.68-96.95-263.22
				c-12.53-46.17-20.31-93.77-22.78-141.58c-2.56-41.73-47.02-64.31-82.05-78.44c-105.13-38.3-249.71-31.66-338.73,40.97
				c-17.12,13.76-30.94,31.21-43.38,49.12c-137.84,199.14-261.16,458.79-227.53,706.15c11.85,87.14,46.47,177.41,123.79,225.5
				c37.04,23.78,80.77,37.81,124.36,45.64c14.24,2.98,27.46,3.62,42.13,2.39c30.13-2.63,61.94-7.42,92.7-9.46
				c31.23-2.14,61.67-4.62,92.28-8.16c99.5-12.55,219.64-35.56,297.95-100.4c11.34-9.99,21.49-21.48,30.36-34.55
				c-44.57,142.47-291.16,166.19-417.89,176.8c-39.55,2.74-78.06,11.98-118.4,10.71c-24.69-1.96-48.6-7.8-72.47-14.4
				c-182.54-50.5-232.92-213.04-232.08-385.16c6.74-231.79,115.01-455.96,244.87-643.62c91.25-134.42,327.53-150.37,459.34-72.07
				c25.91,15.93,51.71,41.18,57.92,73.01c2.33,12.35,2.03,24.48,3.32,36.8c3.26,37.77,9.62,75.18,19.32,111.88
				C2300.8,2788.63,2404.59,2933.31,2368.37,3092.61L2368.37,3092.61z"/>
		</g>
		<g>
			<path class="st6" d="M1974.39,3361.2c0,0-0.09,0.13-0.21,0.43C1974.3,3361.37,1974.39,3361.2,1974.39,3361.2z"/>
		</g>
		<g>
			<path class="st2" d="M1949.15,3563.7c-13.72,1.78-165.68-4.24-254.91-106.06c0,0-76.34-70.77-94.19-169.03
				c-29.07-160.04,67.52-226.39,67.52-226.39c164-58.66,257,111.57,257,111.57s2.74,27.74,6.5,68.41
				C1941.32,3353.66,1959.24,3562.4,1949.15,3563.7z"/>
		</g>
		<g class="st0">
			<path class="st1" d="M1949.16,3563.7c-13.72,1.78-165.68-4.24-254.91-106.06c0,0-76.34-70.77-94.19-169.03
				c0,0,32.22-6.33,71.42,31.77c30.78,29.93,58.97,56.88,77.78,12.42c18.81-44.46,14.98-69.23,37.21-107.94
				c8.82-15.36,71.83-3.08,144.61,17.34C1941.32,3353.66,1959.25,3562.4,1949.16,3563.7z"/>
		</g>
		<g>
			<path class="st1" d="M1694.24,3457.62c45.93,32.73,93.77,55.77,146.84,71.85c32.02,9.74,65.43,17.86,98.99,19.2
				c1.49,0.04,5.58,0.12,7.06,0.01c-4.23,0.35-9.6,4.03-11,8.43c1.61-13.74,0.66-30.46,0.21-46.02
				c-5.37-111.76-16.34-224.23-26.83-335.8c0,0,1.78,5.77,1.78,5.77c-2.96-4.32-6.82-9.44-10.37-14.13
				c-39.33-51.56-92.53-96.73-158.86-105.62c-24.55-3.78-49.45-2.27-74.5,0.92c45.28-28.77,106.83-30.63,155.49-7.45
				c49.61,22.72,90.09,63.3,114.82,111.75c9.03,57.34,11.11,116.27,17.1,174.21c5.14,70.93,13.03,141.19,11.94,212.91
				c-0.37,5.19-0.79,11.09-3.32,16.07c-2.12,4.6-7.36,8.45-12.58,9.01c0,0-0.27,0.03-0.27,0.03l-2.2,0.2
				C1853.01,3578.8,1743.45,3545.68,1694.24,3457.62L1694.24,3457.62z"/>
		</g>
		<g>
			<path class="st2" d="M1974.66,3557.85c139.56-41.52,87.21-291.4,52.97-355.93c-45.33-95.47-150.66-111-215.61-72.07
				c-26.37,15.81-101.6,79.39-79.78,207.68C1755.2,3472.66,1856.82,3592.16,1974.66,3557.85z"/>
		</g>
		<g class="st4">
			<path class="st2" d="M2053.53,3279.45c-5.76-19.43-12.03-35.54-17.79-46.38c-45.33-95.49-150.68-111.03-215.64-72.09
				c-26.39,15.81-101.58,79.42-79.79,207.71c0.79,4.67,1.68,9.31,2.69,13.94c-4.56-14.69-8.15-29.79-10.76-45.11
				c-21.83-128.3,53.41-191.87,79.79-207.68c64.92-38.94,170.27-23.4,215.6,72.05C2036.22,3218.12,2045.98,3246.04,2053.53,3279.45z
				"/>
		</g>
		<g class="st0">
			<path class="st1" d="M1974.67,3557.84c-96.61,28.14-182.38-47.13-222.74-149.68c47.76,80.01,124.78,127.84,208.74,101.05
				c84.55-26.98,104.4-131.29,93.37-227.45C2076.1,3381.14,2078.34,3527,1974.67,3557.84z"/>
		</g>
		<g>
			<path class="st1" d="M1933.85,3578.92c-30.41,0-60.43-8.93-88.59-26.56c-63.42-39.72-112.45-121.06-127.96-212.29
				c-25.66-150.91,75.33-216.26,86.92-223.21c37.81-22.66,86.91-28.16,131.37-14.72c46.15,13.96,83.63,46.97,105.57,92.97
				c28.73,54.45,61.53,204.45,22.11,298.49c-17.06,40.69-45.42,67.19-84.3,78.76c-0.02,0-0.05,0.01-0.08,0.02
				C1963.91,3576.75,1948.83,3578.92,1933.85,3578.92z M1974.66,3557.85h0.05H1974.66z M1886.25,3125.15
				c-23.73,0-47,6.02-66.46,17.69c-9.79,5.86-94.93,61.08-72.64,192.16c14.11,82.97,57.86,156.42,114.17,191.69
				c34.99,21.91,71.69,27.51,109.06,16.63c29.73-8.86,51.58-29.52,64.95-61.42c35.33-84.28,4.59-224.47-21.09-272.88
				c-0.1-0.2-0.21-0.4-0.3-0.61c-23.33-49.15-60.25-69.15-87.12-77.28C1913.57,3127.12,1899.83,3125.15,1886.25,3125.15z"/>
		</g>
		<g>
			
				<ellipse transform="matrix(0.9768 -0.2142 0.2142 0.9768 -681.0193 489.9514)" class="st5" cx="1920.12" cy="3387.18" rx="86.42" ry="107.24"/>
		</g>
		<g>
			
				<ellipse transform="matrix(0.9768 -0.2142 0.2142 0.9768 -646.8782 496.8101)" class="st5" cx="1968.82" cy="3233.07" rx="31.74" ry="39.39"/>
		</g>
		<g>
			
				<ellipse transform="matrix(0.9768 -0.2142 0.2142 0.9768 -661.6097 463.8022)" class="st5" cx="1809.12" cy="3284.48" rx="31.74" ry="39.39"/>
		</g>
		<g>
			
				<ellipse transform="matrix(0.9768 -0.2142 0.2142 0.9768 -647.2378 476.9295)" class="st5" cx="1876.96" cy="3224.85" rx="35.22" ry="43.71"/>
		</g>
		<g>
			<g>
				<path class="st2" d="M2068.84,1397.74c101.71-241.83-182.47-527.96-266.51-655.05c-139.22-210.56-94.28-379.73-45-393
					c53.37-14.36,81.14,55.11,234.09,157.51c89.95,60.22,454.8,248.83,432.94,633.64c-11.63,204.65-95.1,325.71-160.23,365.67"/>
			</g>
			<g>
				<path class="st1" d="M2264.15,1523.78c-5.81,0-11.47-2.93-14.73-8.24c-4.99-8.13-2.44-18.76,5.69-23.75
					c68.09-41.77,141.49-166.78,152.02-351.92c19.3-339.78-270.44-521.05-394.17-598.46c-12.22-7.65-22.78-14.25-31.14-19.85
					c-65.5-43.85-108.51-81.87-139.91-109.63c-43.25-38.23-59.25-51.15-80.08-45.56c-5.98,1.61-15.81,11-23.82,32.16
					c-23.94,63.24-17.68,188.82,78.74,334.64c14.82,22.42,36.18,50.11,60.91,82.18c117.22,151.98,294.36,381.66,207.11,589.1
					c-3.7,8.79-13.82,12.91-22.61,9.22c-8.79-3.7-12.92-13.82-9.22-22.61c79.45-188.89-90.29-408.98-202.62-554.62
					c-25.14-32.6-46.86-60.75-62.37-84.22c-103.61-156.7-109.05-295.05-82.23-365.91c11.03-29.15,27.77-48.07,47.14-53.29
					c39.78-10.71,66.95,13.27,111.93,53.03c30.67,27.11,72.68,64.24,136.25,106.81c7.92,5.3,18.26,11.77,30.24,19.27
					c63.12,39.49,168.76,105.58,258.22,207.71c109.73,125.28,160.91,267.25,152.12,421.98c-12,211.13-98.24,336.34-168.44,379.4
					C2270.35,1522.95,2267.23,1523.78,2264.15,1523.78z"/>
			</g>
			<g>
				<path class="st7" d="M1802.67,455c0.22,6.03,0.46,11.97,0.77,17.84c4.52,92.55,22.88,176.33,214.43,362.33
					c191.17,185.62,185.65,384.4,186.31,459.27c0.68,80.79,67.35,117.23,90.9,75.32c63.68-113.34,84.79-315.97,42.79-418.75
					c-86.45-211.58-303.4-292.37-437.76-406.45C1843.07,496.15,1802.67,455,1802.67,455z"/>
			</g>
			<g>
				<path class="st7" d="M1802.66,454.98c0.24,6.04,0.47,11.97,0.81,17.88c0.72,14.43,1.72,28.68,3.74,43.16
					c0.12,0.52,0.17,1.08,0.24,1.59c0.34,2.38,0.67,4.76,1.08,7.1c0.04,0.23,0.08,0.46,0.12,0.69
					c12.53,75.53,54.03,159.09,209.21,309.76c191.16,185.66,185.67,384.42,186.33,459.31c0.69,80.76,67.34,117.21,90.88,75.28
					c35.59-63.33,57.86-154.48,63.24-240.58c0.05-0.53,0.08-1.01,0.13-1.37c0.02-0.26,0.05-0.53,0.07-0.79
					c4-67.23-2.32-131.12-20.65-175.99c-86.43-211.54-303.37-292.36-437.74-406.45C1843.07,496.15,1802.66,454.98,1802.66,454.98z"
					/>
			</g>
			<g>
				<path class="st8" d="M1808.64,525.39c12.53,75.53,54.03,159.09,209.21,309.76c191.16,185.66,185.67,384.42,186.33,459.31
					c0.69,80.76,67.34,117.21,90.88,75.28c35.59-63.33,57.86-154.48,63.24-240.58c-1.75,16.97-13.5,106.85-66.43,85.1
					c-61.84-25.44-38.11-193.52-153.77-332.88C2038.43,761.31,1836.26,687.57,1808.64,525.39z"/>
			</g>
			<g>
				<path class="st1" d="M2266.87,1402.43c-4.22,0-8.56-0.55-12.96-1.68c-31.86-8.19-64.38-47.29-64.87-106.17l-0.05-8.04
					c-0.45-79.47-1.51-265.56-181.67-440.48c-195.29-189.64-214.36-277.41-219-372.46c-0.31-5.89-0.56-11.92-0.78-18.03
					c-0.23-6.25,3.4-11.99,9.15-14.46c5.74-2.48,12.41-1.16,16.79,3.3c0.4,0.41,40.64,41.27,96.44,88.64
					c38.03,32.29,82.79,61.86,130.18,93.16c116.48,76.95,248.5,164.16,311.8,319.1c43.86,107.35,23.07,313.21-43.61,431.89
					C2299.16,1393.41,2283.96,1402.43,2266.87,1402.43z M1819.92,492.92c6.88,81.06,35.95,163.85,208.5,331.39
					c189.26,183.78,190.38,378.77,190.85,462.04l0.05,7.96c0.36,43.14,21.98,71.92,42.13,77.1c9.02,2.32,15.69-0.65,20.42-9.07
					c61.81-110.01,82.22-307.13,41.98-405.6c-59.77-146.28-182.13-227.11-300.46-305.29c-48.17-31.82-93.67-61.88-133.08-95.35
					C1861.87,531.97,1837.37,509.46,1819.92,492.92z"/>
			</g>
			<g>
				<path class="st2" d="M2108.66,2513.47c338.56-8.61,513.56-148.58,564.7-261.86c55.39-122.71,17.98-240.23-5.2-281.05
					c1.62-220.46-85.8-567.99-365.15-668.06c-67.18-26.97-423.85-41.9-596.65,41.27c-264.11,87.81-413.91,362.86-399.74,726.65
					c2.1,276.41,185.97,453.81,570.48,451.62"/>
			</g>
			<g>
				<path class="st2" d="M1306.63,2070.42c2.11,276.39,185.97,453.8,570.47,451.63l231.57-8.58
					c338.57-8.6,513.55-148.58,564.72-261.87c16.49-36.51,24.77-72.65,27.58-106.39c6.77-79.46-16.49-145.89-32.77-174.59
					c0-0.04-0.04-0.04-0.03-0.08c1.6-220.46-85.8-567.99-365.14-668.04c-67.19-27-423.88-41.92-596.65,41.24
					C1442.27,1431.6,1292.44,1706.62,1306.63,2070.42z"/>
			</g>
			<g>
				<path class="st2" d="M1306.63,2070.42c0.56,72.55,13.61,138.26,39.58,195.7c72.84,161.45,247.29,257.51,530.89,255.93
					l231.57-8.58c298.1-7.56,469.38-116.99,540.96-220.37c9.74-14.05,17.62-27.95,23.76-41.51c16.49-36.51,24.77-72.65,27.58-106.39
					c6.77-79.46-16.49-145.89-32.77-174.59c0-0.04-0.04-0.04-0.03-0.08c1.6-220.46-85.8-567.99-365.14-668.04
					c-67.19-27-423.88-41.92-596.65,41.24C1442.27,1431.6,1292.44,1706.62,1306.63,2070.42z"/>
			</g>
			<g class="st0">
				<path class="st1" d="M1346.21,2266.13c72.84,161.45,247.29,257.51,530.89,255.93l231.57-8.58
					c298.1-7.56,469.38-116.99,540.96-220.37c-0.04,0.04-0.08,0.03-0.13,0.07C2471.47,2390.01,1699.06,2627.92,1346.21,2266.13z"/>
			</g>
			<g>
				<path class="st9" d="M2592.14,2055.37c-3.94,50.18,28.24,93.67,71.88,97.09c13.01,1.02,25.62-1.63,36.94-7.25
					c6.77-79.46-16.49-145.89-32.77-174.59C2628.83,1973.23,2595.78,2009.06,2592.14,2055.37z"/>
			</g>
			<g>
				<path class="st1" d="M1982.05,2519.48c225.09-21.54,587.14-55.87,683.77-295.91c29.62-78.14,26.27-171.15-11.09-246.04
					c-1.2-2.24-1.74-4.72-1.71-7.1c-0.1-57.91-6.19-115.94-16.84-172.93c-35.47-192.97-135.31-398.11-327.78-473.12
					c-12.89-4.79-25.24-9.44-39.05-11.55c-71.05-12.33-144.07-13.58-216.51-12.46c-114.36,4.1-233.03,13.3-338.29,60.4
					c-66.3,22.19-128.15,57.13-180.17,103.92c-165.37,148.72-217.64,383.99-210.69,599.19c-1.43,131.86,44.08,260.23,153.75,339.53
					c55.91,41.5,122.07,66.88,189.5,83.84c68.11,17.35,138.59,26.57,210.16,34.78c-35.78,4.64-71.94,6.11-108.14,4.98
					c-183.8-4.11-376.37-92.27-445.68-272.6c-28.15-68.89-34.49-143.2-34.86-216.75c-3.81-216.89,54.77-450.59,220.96-600.8
					c51.33-48.35,130.41-92.1,188.79-110.1c55.74-26.12,115.17-39.45,175.16-48.96c133.64-18.56,269.38-22.52,403.06-1.53
					c45.53,9.06,88.39,30.98,127.44,55.67c202.57,133.89,280.52,406.99,279.47,638.71c0,0.07-1.98-7.59-1.98-7.57
					c44.93,83.14,50.13,184.65,17.76,272.98C2602.12,2489.42,2218.92,2542.4,1982.05,2519.48L1982.05,2519.48z"/>
			</g>
			<g>
				<path class="st1" d="M2201.1,2176.09c0.71-28.84-0.2-59.39-6.63-86.96c0,0,34.05-1.13,34.05-1.13
					C2223.6,2119.37,2213.26,2147.6,2201.1,2176.09L2201.1,2176.09z"/>
			</g>
			<g>
				<g>
					<path class="st1" d="M2283.08,2039.47c0.41,25.11-27.21,47.75-48.5,61.44c-14.74,9.48-33.63,9.79-48.67,0.8
						c-21.73-12.99-50.09-34.71-50.5-59.81C2134.73,2001.12,2282.41,1998.69,2283.08,2039.47z"/>
				</g>
				<g class="st10">
					<path class="st2" d="M2254.24,2032.23c0.07,4.3-9.46,8.26-16.8,10.67c-5.08,1.67-11.56,1.77-16.69,0.27
						c-7.41-2.17-17.07-5.81-17.14-10.11C2203.49,2026.07,2254.13,2025.24,2254.24,2032.23z"/>
				</g>
			</g>
			<g>
				<g>
					<path class="st2" d="M1615.5,1384.89c126.47-81.37,267.91-89.12,441.19-169.55c43.24-20.07,117.4-73.56,117.4-73.56
						s22.94,82.95,13.09,133.05c103.75-9.96,143.14,33.06,287.56,25.69c-23.58,42.97-75.34,101.57-155.36,101"/>
				</g>
				<g>
					<path class="st1" d="M1607.31,1372.15c87.43-56.36,190.82-80.95,288.28-111.77c59.81-19.37,119.48-40.07,174.85-69.25
						c32.62-18.49,64.16-39.94,94.79-61.63c6.76-4.96,16.3-3.44,21.17,3.39c5.8,12.18,6.89,26.01,10.05,38.77
						c6.49,35.04,11.69,70.22,5.59,106.09c0,0-16.31-17.99-16.31-17.99c73.75-12.46,145.63,17.03,217.9,22.37
						c23.62,2.06,47.49,2.04,71.44,1.8c12.37-0.48,20.75,14.17,14.23,24.58c-17.79,29.91-41.03,56.98-71.09,75.01
						c-14.95,8.98-31.44,15.51-48.38,18.68c-16.93,3.18-34.24,3.01-50.44-0.67c16.25-3.76,31.38-8.66,45.37-15.29
						c41.15-19.64,74.29-53.69,95.43-93.69c0,0,15.4,24.57,15.4,24.57c-24.69,1.78-49.6,2.03-74.57,0.63
						c-54.64-2.22-107.73-20.26-160.89-26.41c0,0-17.06-1.38-17.06-1.38c-9.11-0.39-26.33-0.36-35.44-0.01
						c-9.53,0.31-17.13-8.68-15.3-18.02c1.76-9.46,2.23-19.83,2.08-30.3c-0.81-32-6.97-64.82-14.91-95.79c0,0,23.45,8.25,23.45,8.25
						c-42.65,29.64-85.37,60.23-133.26,80.96c-93.36,42.85-194.33,67.4-290.73,99.78c-47.41,16.03-93.13,36.12-135.26,62.82
						C1623.7,1397.62,1607.31,1372.15,1607.31,1372.15L1607.31,1372.15z"/>
				</g>
			</g>
			<g>
				<g>
					<path class="st2" d="M1763.14,1388.7c-24.33-144-79.47-270.55-153.04-350.02c-234.56-253.33-617.14-224.3-784.02-241.18
						c-101.15-10.23-222.77-41.4-237.03-16.07c-17.46,31.02,30.37,175.98,103.95,250.66c246.18,249.89,738.13,223.68,871.47,468.84"
						/>
				</g>
				<g>
					<path class="st1" d="M1763.14,1388.7c-37.2-107.57-69.85-216.73-138.58-308.05c-34.16-43.96-76.33-81.86-122.07-113.4
						c-192.08-132.12-428.8-139.54-653.72-151.05c-73.07-5.02-142.13-22.15-213.4-28.05c-11.15-0.48-23.49-1.51-33.35,2.22
						c-0.29,0.15-0.03,0.07,0.46-0.56c0.11-0.15,0.27-0.33,0.35-0.53c0.06-0.12-0.04,0.09-0.04,0.09c-0.07,0.1-0.17,0.42-0.29,0.72
						c-3.91,20.92,3.14,43.54,8.71,64.43c7.94,26.42,18.59,52.39,31.15,77.21c24.56,50.32,59.82,93.3,103.69,127.68
						c181.19,146.05,420.44,171.13,628.48,265.68c53.12,25.24,106.44,54.56,146.43,98.62c19.98,22.2,35.8,48.63,43.48,77.21
						c-20.1-21.71-39.7-41.35-61.27-58.85c-64.54-54.78-141.78-88.73-221.43-117.79c-106.94-38.91-217.89-70.84-325.77-113.75
						c-107.53-43.74-216.82-99.32-293.42-189.38c-37.29-47.05-63.69-100.53-81.53-157.59c-6.37-22.25-12.33-44.96-11.26-69.06
						c0.8-20.18,11.14-33.64,31.26-36.9c26.9-4.43,53.99,0.08,80.29,3.09c57.59,7.74,113.75,18.47,169.85,22.18
						c172.41,8.24,350.42,12.9,514.3,75.28c136.46,51.13,264.03,145.72,331.2,278.6C1737.5,1214.27,1761.91,1301.22,1763.14,1388.7
						L1763.14,1388.7z"/>
				</g>
			</g>
			<g>
				<path class="st7" d="M668.82,869.26c3.74,43.26,115.6,156.39,210.73,208.46c199.35,109.12,428.56,89.92,656.92,282.6
					c40.84,34.46,68.88,83.06,96.14,79.23c19.28-2.71,23.05-52.31,20.95-78.14c-12.68-155.9-125.88-320.82-411.71-365.91
					C793.76,924.82,667.84,857.93,668.82,869.26z"/>
			</g>
			<g>
				<path class="st7" d="M668.83,869.25c3.73,43.3,115.61,156.41,210.7,208.47c184.57,101.01,394.61,92.05,605.95,242.99
					c17.01,12.07,33.99,25.25,50.99,39.59c40.86,34.48,68.9,83.09,96.17,79.23c19.26-2.71,23.02-52.32,20.92-78.13
					c-12.69-155.88-125.87-320.82-411.71-365.88C793.75,924.84,667.85,857.94,668.83,869.25z"/>
			</g>
			<g>
				<path class="st8" d="M668.83,869.25c54.19,56.56,607.64,168.32,732.77,226.53c125.13,58.16,188.77,200.86,177.54,230.26
					c-8.61,22.55-53.55,10.69-93.67-5.33c17.01,12.07,33.99,25.25,50.99,39.59c40.86,34.48,68.9,83.09,96.17,79.23
					c19.26-2.71,23.02-52.32,20.92-78.13c-12.69-155.88-125.87-320.82-411.71-365.88C793.75,924.84,667.85,857.94,668.83,869.25z"/>
			</g>
			<g>
				<path class="st1" d="M1629.38,1454.92c-23.14,0-42.71-21.25-65.13-45.58c-11.74-12.75-23.89-25.93-37.54-37.45
					c-136.37-115.06-272.93-153.13-405-189.96c-87.32-24.35-169.79-47.34-249.43-90.93c-91.44-50.05-213.84-165.94-218.55-220.44
					c0,0,0,0,0,0c-0.46-5.39,1.75-10.62,5.93-13.98c8.23-6.61,14.36-4.71,48.38,5.91c59.37,18.52,217.07,67.72,536.17,118.05
					c135.7,21.41,242.25,70.43,316.69,145.71c63.24,63.96,100.5,144.85,107.74,233.93c0.29,3.62,6.73,88.64-33.94,94.36
					C1632.92,1454.8,1631.13,1454.92,1629.38,1454.92z M692.59,889.4c26.88,45.47,111.47,129.74,194.23,175.04
					c76.58,41.92,157.43,64.46,243.02,88.33c135.19,37.69,274.99,76.67,416.4,195.98c15.11,12.75,28.49,27.27,40.29,40.08
					c15.49,16.82,32.98,35.8,42.97,35.8c0.06,0,0.13,0,0.19,0c5.77-5.61,10.97-35.06,8.78-61.98
					c-7.16-88.1-60.38-298.77-398.97-352.18C918.21,959.78,758.97,910.1,699.02,891.4C696.85,890.73,694.69,890.05,692.59,889.4z
					 M683.9,867.96c0,0.01,0,0.03,0,0.04C683.9,867.99,683.9,867.98,683.9,867.96L683.9,867.96z"/>
			</g>
			<g>
				
					<ellipse transform="matrix(0.0783 -0.9969 0.9969 0.0783 -716.9351 3574.269)" class="st9" cx="1574.51" cy="2174.86" rx="91.18" ry="117.32"/>
			</g>
			<g>
				<g>
					<path class="st2" d="M2187.18,1274.82c-35.57,6.77-76.4,28.41-105.06,30.39"/>
				</g>
				<g>
					<path class="st1" d="M2190.01,1289.7c-34.82,1.11-72.08,16.52-107.89,15.51c37.04-9.76,64.98-33.37,102.23-45.26
						C2184.35,1259.95,2190.01,1289.7,2190.01,1289.7L2190.01,1289.7z"/>
				</g>
			</g>
		</g>
		<g>
			<g>
				<path class="st3" d="M2265.65,2796.91c-18.3-146.28-107.25-249.03-58.72-345.53c24.66-49.02,77.3-52.67,98.94-49.35
					c106.12,16.28,177.57,167.29,166.15,286.87C2459.1,2824.17,2341.74,2824.13,2265.65,2796.91z"/>
			</g>
			<g>
				<path class="st2" d="M2472.01,2688.89c-0.82,8.55-2.05,16.52-3.66,24.01c0,0,0,0-0.03,0.03
					c-23.91,111.13-131.41,109.48-202.69,83.97c-6.05-48.29-19.8-91.87-33.76-132.02c-28.29-81.44-57.43-148.89-24.93-213.49
					c24.66-49.01,77.3-52.67,98.95-49.35C2411.99,2418.31,2483.44,2569.32,2472.01,2688.89z"/>
			</g>
			<g class="st4">
				<path class="st2" d="M2393.93,2451.93c-20.73-15.66-43.75-26.34-68.51-30.13c-23.22-3.56-79.62,0.38-106.06,52.91
					c-34.85,69.26-3.59,141.57,26.71,228.85c10.47,30.17,20.83,62.11,28.35,96.32c-3.01-0.96-5.92-1.95-8.79-2.98
					c-6.05-48.29-19.8-91.87-33.76-132.02c-28.29-81.44-57.43-148.89-24.93-213.49c24.66-49.01,77.3-52.67,98.95-49.35
					C2339.14,2407.13,2369,2425.46,2393.93,2451.93z"/>
			</g>
			<g class="st0">
				<path class="st1" d="M2468.32,2712.93c-23.91,111.13-131.41,109.48-202.69,83.97c-6.05-48.29-19.8-91.87-33.76-132.02
					c31.06,0.24,76.79,5.68,117.21,30.17C2399.06,2725.35,2440.1,2747.38,2468.32,2712.93z"/>
			</g>
			<g>
				<path class="st1" d="M2344.54,2826.25c-37.35,0-70.42-10.23-83.99-15.08c-5.38-1.92-9.21-6.71-9.92-12.38
					c-6.91-55.25-23.94-103.37-40.41-149.91c-26.49-74.88-49.38-139.55-16.82-204.3c27.75-55.16,87.18-61.74,114.77-57.52
					c115.4,17.71,190.94,177.57,178.93,303.28c-5.09,53.32-25.73,91.82-61.34,114.44
					C2400.22,2821.01,2371.28,2826.25,2344.54,2826.25z M2279.38,2785.53c26.86,8.36,86.18,21.62,130.13-6.3
					c27.31-17.35,43.28-48.23,47.44-91.76c10.53-110.23-55.53-255.45-153.37-270.46c-20.04-3.07-63.19,1.58-83.12,41.2
					c-26.76,53.21-6.88,109.42,18.31,180.59C2254.1,2682.1,2271.36,2730.89,2279.38,2785.53z"/>
			</g>
			<g>
				<path class="st2" d="M2387.99,2934.88c-14.81,18.47-33.83,21.96-69.74,23.26c-63.48,2.26-152.82,39.88-272.56,23.77
					c-119.27-16.01-234.77-96.21-276.8-145.26c-1.61-1.88-3.11-3.73-4.51-5.51l77.23-276.19c9.82,4.45,23.46,13.89,40.19,25.99
					c0,0,0,0,0.03,0.03c54.52,39.54,141.43,107.19,232.58,120.05c69.53,9.82,155.01-20.39,226.29,20.66
					c26.23,15.12,43.75,43.2,53.8,74.46c0,0.03,0,0.03,0,0.07C2411.49,2848.99,2407.25,2910.9,2387.99,2934.88z"/>
			</g>
			<g class="st4">
				<path class="st2" d="M2394.49,2796.15c0,0.03,0,0.03,0,0.07c-77.98-107.74-173.2-55.85-293.19-73.54
					c-118.1-17.38-217.22-138.9-219.48-141.7c54.52,39.54,141.43,107.19,232.58,120.05c69.53,9.82,155.01-20.39,226.29,20.66
					C2366.92,2736.81,2384.44,2764.89,2394.49,2796.15z"/>
			</g>
			<g class="st0">
				<path class="st1" d="M2387.99,2934.88c-14.81,18.47-33.83,21.96-69.74,23.26c-63.48,2.26-152.82,39.88-272.56,23.77
					c-119.27-16.01-234.77-96.21-276.8-145.26c43.37,6.09,173.48,99.94,286.24,109.21c114.13,9.41,182.99-22.51,269.35-18.64
					c63.89,2.87,75.14-77.09,70.01-131C2411.49,2848.99,2407.25,2910.9,2387.99,2934.88z"/>
			</g>
			<g>
				<path class="st1" d="M1841.61,2554.95c29.09,9.88,54.57,28,80.95,43.04c25.89,15.62,51.78,30.69,78.05,44.17
					c26.26,13.4,52.4,26.52,79.82,35.36c27.94,9.13,55.42,11.6,84.88,9.96c68.17-3.55,152.32-14.64,207.12,39.3
					c44.33,46.98,57.62,124.59,43.34,186.29c-13.07,51.99-52.03,61.39-99.65,62.35c-15.99,0.97-31.8,3.71-48.33,6.82
					c-88.19,19.48-187.78,32.26-277.69,4.97c-59.87-18.15-117-45.84-165.37-85.51c-23.57-20.02-46.31-42.68-60.37-70.57
					c24.12,19.25,49.06,35.3,74.54,50.75c91.37,56.42,180.86,92.87,289.97,86.14c60.65-2.27,118.42-20.21,179.39-26.43
					c48.45-2.32,73.5-0.13,79.56-56.88c4.92-51.24-8.19-118.2-52.6-147.9c-23.56-14.71-51.27-20.32-79.12-21.61
					c-28.81-1.38-58.65,1.65-89.64,2.78c-31.18,1.65-64.78-1.61-94.93-10.68c-61.19-16.31-113.62-52.63-160.84-92.76
					C1887.09,2595.14,1866.19,2573.06,1841.61,2554.95L1841.61,2554.95z"/>
			</g>
			<g>
				<path class="st1" d="M2270.05,2388.3c40.26,4.61,70.03,38.73,84.35,74.3c-19.73-24.73-49.32-47.67-82.37-44.26
					c-0.26,0.07-0.82,0.14-0.53,0.21L2270.05,2388.3L2270.05,2388.3z"/>
			</g>
			<g>
				<path class="st1" d="M2234.09,2408.95c32.2,17.94,56.95,49.31,65.98,84.9c-15.88-26.61-41.72-46.62-71.29-55.26
					c-1.72-0.5-3.84-1.04-4.94-1.14L2234.09,2408.95L2234.09,2408.95z"/>
			</g>
		</g>
		<g>
			<path class="st1" d="M2312.38,2351.29c-34.41-31.81-84.07-22.65-121.57-0.78c-24.5,14.06-45.93,32.3-67.8,50.36
				c14.13-25.43,33.84-48.83,57.36-66.44c16.8-11.75,35.54-21.38,55.96-24.74C2266.58,2302.78,2307.08,2317.72,2312.38,2351.29
				L2312.38,2351.29z"/>
		</g>
		<g>
			<path class="st1" d="M1709.42,1932.63c16.75,40.19,39.24,78.15,73.53,103.28c46.34,34.73,110.95,39.38,162.06,15.82
				c35.15-16.72,56.86-49.06,70.33-86.51c7.61-20.86,12.76-42.66,18.22-64.73c16.49,46,17.04,97.85-6.44,143.12
				c-37.65,73.54-135.88,94.77-208.76,66.3C1746.53,2083.28,1702.77,2007,1709.42,1932.63L1709.42,1932.63z"/>
		</g>
		<g>
			<path class="st1" d="M2548.95,1922c20.65,51.16,7.58,125.62-49.53,147.84c-38.92,14.98-85.4,4.38-115-24.44
				c-40.25-40.06-48.82-100.97-35.58-153.57c10.57,32.92,20.93,63.99,36.96,89.47c20.6,35.3,58.87,58.25,99.41,48.37
				C2528.11,2016.27,2540.85,1962.8,2548.95,1922L2548.95,1922z"/>
		</g>
		<g>
			<path class="st11" d="M2775.52,1781.38c0,0,94.87,8.2,145.49-56.3c22.71,11.9,47.9,19.05,74.53,20.37
				c43.97,2.18,87.91,2.18,131.88,0c102.37-5.05,183.79-96.77,184.06-208.95v-3.89c-0.27-112.17-81.69-203.93-184.06-208.99
				c-43.97-2.14-87.91-2.14-131.88,0c-102.37,5.05-183.79,96.81-184.06,208.99v3.89c0.08,39.62,10.3,76.67,28.03,108.28
				C2831.62,1690.71,2814.17,1750.47,2775.52,1781.38z"/>
		</g>
		<g>
			<g>
				<path class="st1" d="M3049.22,1609.63c-16.5-1.38-30.5,10.32-31.87,26.64c-1.34,16.05,10.77,30.2,27,31.56
					c16.04,1.34,30.19-10.62,31.53-26.66C3077.23,1625.12,3065.27,1610.97,3049.22,1609.63z"/>
			</g>
			<g>
				<path class="st1" d="M3067.6,1409.94c-33.19-2.78-62.93,13.04-77.69,41.39c-2.29,4.57-2.49,9.87-0.58,14.55
					c1.89,4.6,5.69,8.17,10.25,9.72l11,4.01l0.28,0.08c1.28,0.37,2.6,0.61,3.92,0.72c7.6,0.64,14.78-3.18,18.35-9.73
					c3.5-6.02,11.7-15.77,27.58-14.44c18.39,1.54,25.6,16.11,24.52,29c-1.13,13.53-10.19,21.97-21.67,32.65
					c-13.27,12.35-29.78,27.72-35.2,55.41l-0.07,0.4c-0.73,4.96,0.62,10.04,3.7,13.92c3.02,3.81,7.33,6.12,12.15,6.53l13.63,1.14
					c8.57,0.72,16.58-5.18,18.63-13.72l0.06-0.26c3.32-15.97,13.37-25.43,25.01-36.37c14.41-13.54,30.74-28.9,33.22-58.57
					C3137.95,1447.6,3107.85,1413.31,3067.6,1409.94z"/>
			</g>
		</g>
		<g>
			<path class="st1" d="M2786.59,1794.25c-6.95,0-11.34-0.35-12.15-0.42c-5.09-0.44-9.4-3.94-10.88-8.83
				c-1.48-4.89,0.16-10.2,4.16-13.39c34.6-27.67,51.01-82.19,58.73-124.68c-17.9-33.47-27.38-71.55-27.46-110.41v-3.91
				c0.29-118.79,86.36-216.06,195.95-221.47c44.17-2.15,88.95-2.15,133.11,0c109.6,5.41,195.67,102.68,195.96,221.44v3.92
				c-0.29,118.77-86.36,216.02-195.95,221.43c-44.16,2.19-88.95,2.19-133.12,0c-24.6-1.22-48.33-7.05-70.68-17.34
				C2880.3,1788.91,2813.81,1794.25,2786.59,1794.25z M3061.49,1334.54c-21.83,0-43.66,0.53-65.34,1.58
				c-96.28,4.75-171.91,91.08-172.17,196.53v3.86c0.07,36.12,9.21,71.46,26.44,102.17c1.4,2.5,1.9,5.41,1.42,8.23
				c-6.53,37.99-19.73,86.37-46.38,121.3c29.98-2.87,76.48-13.6,105.72-50.85c3.72-4.74,10.3-6.15,15.63-3.35
				c21.71,11.37,45.04,17.75,69.36,18.96c43.34,2.15,87.3,2.15,130.64,0c96.29-4.75,171.92-91.06,172.18-196.49v-3.86
				c-0.26-105.42-75.89-191.75-172.18-196.5C3105.15,1335.06,3083.32,1334.54,3061.49,1334.54z"/>
		</g>
	</g>
</g>
</svg>
